<svg viewBox="0 0 24 24" xmlns="http://www.w3.org/2000/svg"><g><path d="M23.414 3L20.994.58l0 0c-.38-.38-.89-.59-1.42-.59H7.98l-.01 0c-1.11 0-2 .89-2 2v6.79l0 0c0 .13.1.23.23.24l0 0c.48.02.97.09 1.45.21l-.01-.01c.13.03.26-.04.3-.18 0-.03 0-.05 0-.07V2.45l0 0c-.01-.28.22-.51.49-.51h10.87l0 0c.13 0 .25.05.35.14L21.776 4.2l-.01-.01c.09.09.14.22.14.35v13.37 0c0 .27-.23.5-.5.5h-7.34l0 0c-.07-.01-.12.01-.17.05 -.28.25-1.33 1.2-1.33 1.2l-.01 0c-.14.12-.18.3-.13.47 .08.26.44.26.44.26h9l-.01-.001c1.1 0 2-.9 2-2V4.3l0-.01c0-.54-.22-1.04-.59-1.42Z"/><path d="M10.331 19.4l-.01-.01c-.05-.1-.02-.22.06-.29l2.21-1.98 -.01 0c.37-.36.48-.91.3-1.38l-.01-.01c-.2-.48-.66-.78-1.17-.77H9.2l-.01 0c-.1 0-.19-.06-.23-.16l-1.35-3.12 -.02-.04 0 0c-.33-.64-1.11-.89-1.74-.57 -.26.12-.46.33-.58.59l-1.35 3.12 0-.01c-.05.09-.14.15-.23.15h-2.5l-.01-.01c-.51-.02-.98.28-1.17.75l-.01 0c-.2.48-.07 1.04.32 1.4l2.18 1.95 -.01-.01c.08.07.1.18.06.28l-1.22 2.81 0-.01c-.23.5-.1 1.08.31 1.45l0 0c.41.37 1.02.44 1.5.16l3.112-1.76 -.01 0c.07-.05.16-.05.24-.01l3.11 1.75 0 0c.48.28 1.09.21 1.5-.17l0-.01c.41-.37.53-.96.31-1.46Z"/></g></svg>