<svg viewBox="0 0 24 24" xmlns="http://www.w3.org/2000/svg"><g><path d="M18 3l0 0c0 .27.22.49.5.49h2.4l-.01-.001c.08 0 .16-.05.21-.12l0-.01c.04-.08.05-.17.01-.25l0 0c-.13-.26-.29-.5-.49-.7L19.03.81l0 0c-.21-.2-.45-.36-.7-.49l0 0c-.13-.07-.28-.02-.34.11 -.02.03-.03.07-.03.11Z"/><path d="M18.5 4.5l-.01-.001c-.83-.01-1.5-.68-1.5-1.5V.23l0 0c-.01-.14-.12-.25-.25-.25h-2.76 -.01c-.83 0-1.5.67-1.5 1.5v8l0 0c0 .82.67 1.49 1.5 1.49h6l-.01-.001c.82 0 1.5-.68 1.5-1.5v-5Z"/><path d="M18.5 17.5h-.01c-.83-.01-1.5-.68-1.5-1.5v-2.75 0c0-.14-.12-.25-.25-.25h-2.75l-.01 0c-.83 0-1.5.67-1.5 1.5v8l0 0c0 .82.67 1.49 1.5 1.49h6 -.01c.82 0 1.5-.68 1.5-1.5v-4.75 0c0-.14-.12-.25-.25-.25Z"/><path d="M18 16l0 0c0 .27.22.49.5.49h2.4l-.01-.001c.08 0 .16-.05.21-.12l0-.01c.04-.08.05-.17.01-.25l0 0c-.13-.26-.29-.5-.49-.7l-1.59-1.59 0 0c-.21-.2-.45-.36-.7-.49l0 0c-.13-.07-.28-.02-.34.11 -.02.03-.03.07-.03.11Z"/><path d="M3.5 13l-.01-.001c.55 0 1-.45 1-1v-3 0c0-.56-.45-1-1-1 -.56 0-1 .44-1 1v3l0 0c0 .55.44.99 1 .99Z"/><path d="M4.7 4.019l-.01-.01c-.12-.03-.21-.13-.2-.25V1.97v0c0-.56-.45-1-1-1 -.56 0-1 .44-1 1v3l0 0c0 .55.44.99 1 .99h1l0 0c.55 0 1-.45 1-1 0-.48-.34-.89-.81-.99Z"/><path d="M10 4H8l-.01 0c-.56 0-1 .44-1 1 0 .55.44 1 1 .99h2l-.01-.001c.55 0 1-.45 1-1 0-.56-.45-1-1-1.01Z"/><path d="M4.7 18.01L4.69 18c-.12-.03-.21-.13-.2-.25v-1.78 0c0-.56-.45-1-1-1 -.56 0-1 .44-1 1v3l0 0c0 .55.44.99 1 .99h1l0 0c.55 0 1-.45 1-1 0-.48-.34-.89-.81-.99Z"/><path d="M10 18H8h-.01c-.56 0-1 .44-1 1 0 .55.44 1 1 .99h2 -.01c.55 0 1-.45 1-1 0-.56-.45-1-1-1.01Z"/></g></svg>