<svg viewBox="0 0 24 24" xmlns="http://www.w3.org/2000/svg"><path d="M24 16.5v0c0-.83-.68-1.5-1.5-1.5h-1 -.01c-.14-.01-.25-.12-.25-.26v-1.25l-.01-.01c-.01-.97-.79-1.75-1.76-1.75h-5 -.01c-.14-.01-.25-.12-.25-.26V9.21l-.01 0c0-.14.11-.25.25-.25h2l0 0c.82 0 1.5-.68 1.5-1.5 0-.01 0-.01 0-.01v-6 0c0-.83-.68-1.5-1.5-1.5h-7l0 0c-.83-.01-1.5.67-1.51 1.49 0 0-.001 0-.001 0v6l0-.01c-.01.82.67 1.5 1.49 1.5 0 0 0 0 0 0h3 -.01c.13-.01.25.11.25.24v2.25 0c0 .13-.12.25-.25.25h-8l-.01 0c-.97 0-1.75.78-1.75 1.75v1.25 -.01c0 .13-.12.24-.25.25h-1l-.01 0c-.83 0-1.5.67-1.5 1.5 0 0 0 0 0 0v6l0 0c0 .82.67 1.49 1.5 1.49h7l-.01 0c.82-.01 1.49-.68 1.49-1.5v-6 -.01c0-.83-.68-1.5-1.5-1.5 0 0-.01 0-.01 0h-4 -.01c-.14-.01-.25-.12-.25-.26v-1.25l-.01 0c0-.14.11-.25.24-.26h15l-.01-.001c.13 0 .24.11.25.24v1.25 0c0 .13-.12.25-.25.25h-4l0-.001c-.83 0-1.5.67-1.5 1.5v6l0-.01c-.01.82.67 1.5 1.49 1.5 0 0 0 0 0 0h7l-.01-.001c.82 0 1.5-.68 1.5-1.5 0-.01 0-.01 0-.01ZM11.5 4.24l-.01-.001c-.42-.01-.75-.34-.75-.75 0-.42.33-.75.75-.75h3 -.01c.41-.01.75.33.75.75 0 .41-.34.75-.75.75Zm-8 13.5h3 -.01c.41-.01.75.33.75.75 0 .41-.34.75-.75.75h-3 -.01c-.42-.01-.75-.34-.75-.75 0-.42.33-.75.75-.75Zm17 0h-.01c.41-.01.75.33.75.75 0 .41-.34.75-.75.75h-3 -.01c-.42-.01-.75-.34-.75-.75 0-.42.33-.75.75-.75Z"/></svg>