<svg viewBox="0 0 24 24" xmlns="http://www.w3.org/2000/svg"><g stroke-linecap="round" stroke="#000" fill="none" stroke-linejoin="round"><path d="M7.243 9.04l-.01-.01c-.17-.5-.25-1.02-.25-1.55v-2l0 0C6.97 2.71 9.21.47 11.973.47c2.76-.01 5 2.23 5 4.99v2l0 0c0 .55-.1 1.11-.28 1.64"/><path d="M7 6s2 .5 4-2c0 0 1.5 2 6 2"/><path d="M9.5 7.25h-.01c.13-.01.25.11.25.24s-.12.25-.25.25c-.14 0-.25-.12-.26-.25l0 0c-.01-.14.11-.26.24-.26"/><path d="M14.5 7.25h-.01c.13-.01.25.11.25.24s-.12.25-.25.25c-.14 0-.25-.12-.26-.25l0 0c-.01-.14.11-.26.24-.26"/><path d="M2.5 16.5v3.72l-.01-.01c0 .45.3.85.74.96l8.75 2.3v-11l-8.2-2.59 -.01-.01c-.53-.17-1.09.12-1.26.65 -.04.09-.05.19-.05.29v1.63"/><path d="M12 12.5l8.2-2.59 0-.01c.52-.17 1.08.12 1.25.65 .03.09.04.19.04.29v1.63"/><path d="M21.5 16.5v3.72l0-.01c0 .45-.31.85-.75.96l-8.76 2.3"/><path d="M.5 14.5c0 1.5 1.4 2 2.5 2h-.01c.27 0 .5-.23.5-.5v-3 0c0-.28-.23-.5-.5-.5 -1.1 0-2.5.5-2.5 2Z"/><path d="M23.5 14.5c0 1.5-1.4 2-2.5 2h-.01c-.28-.01-.5-.23-.5-.51v-3l0 0c-.01-.28.22-.51.49-.51 1.1-.001 2.5.5 2.5 2Z"/></g></svg>