<svg viewBox="0 0 24 24" xmlns="http://www.w3.org/2000/svg"><g><path d="M21.239 20.146l-.01-.01c-.09-.09-.1-.22-.03-.32l0-.01c1.55-2.32.93-5.46-1.39-7.01 -2.32-1.56-5.46-.94-7.01 1.38 -1.56 2.31-.94 5.45 1.38 7 1.7 1.14 3.92 1.14 5.62-.01l0-.01c.09-.07.23-.06.31.03l2.535 2.53 0 0c.3.3.79.3 1.1-.01l0-.01c.3-.31.3-.8-.01-1.1Zm-4.21.37l-.01-.001c-1.93-.01-3.49-1.56-3.49-3.49 0-1.93 1.55-3.49 3.48-3.49 1.92 0 3.48 1.55 3.48 3.48l0-.01c-.01 1.92-1.57 3.48-3.49 3.48Z"/><path d="M10.5 17.241l0 0c-.01-.14-.12-.24-.25-.25H2.49h-.01c-.28-.01-.5-.23-.5-.51v-8l0-.01c0-.28.22-.5.5-.5h18 -.01c.27-.01.5.22.5.49v3.25l-.01 0c-.01.07.03.14.09.19l0 0c.57.46 1.05 1.01 1.44 1.64l-.01-.01c.07.11.22.15.34.08 .07-.05.11-.13.11-.22V7.92v0c0-1.11-.9-2-2-2h-19l-.01 0c-1.11 0-2 .89-2 2v9l0-.01c-.01 1.1.89 2 1.99 2h8.47l0 0c.13 0 .25-.12.25-.25 0-.03-.01-.05-.01-.07l0 0c-.13-.48-.21-.96-.23-1.45Z"/><path d="M5 11.5a1 1 0 1 0 0 2 1 1 0 1 0 0-2Z"/><path d="M9 11.5a1 1 0 1 0 0 2 1 1 0 1 0 0-2Z"/></g></svg>