<?xml version="1.0" encoding="UTF-8"?>
<svg width="36px" height="36px" viewBox="0 0 36 36" version="1.1" xmlns="http://www.w3.org/2000/svg" xmlns:xlink="http://www.w3.org/1999/xlink">
    <title>smiley-sad-1-alternate</title>
    <g id="Maquette-V2" stroke="none" stroke-width="1" fill="none" fill-rule="evenodd">
        <g id="Une-ressource" transform="translate(-1158.000000, -334.000000)" fill="#000091" fill-rule="nonzero">
            <g id="smiley-sad-1-alternate" transform="translate(1158.000000, 334.000000)">
                <path d="M18,0 C8.0588745,0 0,8.0588745 0,18 C0,27.9411255 8.0588745,36 18,36 C27.9411255,36 36,27.9411255 36,18 C35.9892527,8.06332957 27.9366704,0.0107472714 18,0 Z M18,33 C9.71572875,33 3,26.2842712 3,18 C3,9.71572875 9.71572875,3 18,3 C26.2842712,3 33,9.71572875 33,18 C32.9909064,26.2805016 26.2805016,32.9909064 18,33 L18,33 Z" id="Shape"></path>
                <path d="M18,21 C14.9244913,21.0596741 12.1252613,22.7886441 10.695,25.512 C10.4103341,25.9795788 10.4029904,26.5651012 10.6758398,27.0396725 C10.9486891,27.5142437 11.4583978,27.8024928 12.0057084,27.7917361 C12.5530191,27.7809795 13.0510082,27.4729256 13.305,26.988 C14.2103463,25.2124681 16.0081418,24.068312 18,24 C19.9918582,24.068312 21.7896537,25.2124681 22.695,26.988 C23.1160222,27.6795514 24.0098718,27.9121959 24.7146163,27.5136508 C25.4193608,27.1151056 25.6806551,26.2292073 25.305,25.512 C23.8747387,22.7886441 21.0755087,21.0596741 18,21 L18,21 Z" id="Path"></path>
                <circle id="Oval" cx="12" cy="13.5" r="3"></circle>
                <circle id="Oval" cx="24" cy="13.5" r="3"></circle>
            </g>
        </g>
    </g>
</svg>