<?xml version="1.0" encoding="UTF-8"?>
<svg width="36px" height="36px" viewBox="0 0 36 36" version="1.1" xmlns="http://www.w3.org/2000/svg" xmlns:xlink="http://www.w3.org/1999/xlink">
    <title>smiley-indiferent-1-alternate</title>
    <g id="Maquette-V2" stroke="none" stroke-width="1" fill="none" fill-rule="evenodd">
        <g id="Une-ressource" transform="translate(-1265.000000, -334.000000)" fill="#000091" fill-rule="nonzero">
            <g id="smiley-indiferent-1-alternate" transform="translate(1265.000000, 334.000000)">
                <path d="M18,0 C8.0588745,0 0,8.0588745 0,18 C0,27.9411255 8.0588745,36 18,36 C27.9411255,36 36,27.9411255 36,18 C35.9892527,8.06332957 27.9366704,0.0107472714 18,0 Z M18,33 C9.71572875,33 3,26.2842712 3,18 C3,9.71572875 9.71572875,3 18,3 C26.2842712,3 33,9.71572875 33,18 C32.9909064,26.2805016 26.2805016,32.9909064 18,33 L18,33 Z" id="Shape"></path>
                <path d="M25.5,22.5 L10.5,22.5 C9.67157288,22.5 9,23.1715729 9,24 C9,24.8284271 9.67157288,25.5 10.5,25.5 L25.5,25.5 C26.3284271,25.5 27,24.8284271 27,24 C27,23.1715729 26.3284271,22.5 25.5,22.5 Z" id="Path"></path>
                <path d="M14.25,15 C15.0784271,15 15.75,14.3284271 15.75,13.5 C15.75,12.6715729 15.0784271,12 14.25,12 L9.75,12 C8.92157288,12 8.25,12.6715729 8.25,13.5 C8.25,14.3284271 8.92157288,15 9.75,15 L14.25,15 Z" id="Path"></path>
                <path d="M26.25,12 L21.75,12 C20.9215729,12 20.25,12.6715729 20.25,13.5 C20.25,14.3284271 20.9215729,15 21.75,15 L26.25,15 C27.0784271,15 27.75,14.3284271 27.75,13.5 C27.75,12.6715729 27.0784271,12 26.25,12 Z" id="Path"></path>
            </g>
        </g>
    </g>
</svg>