<?xml version="1.0" encoding="UTF-8"?>
<svg width="36px" height="36px" viewBox="0 0 36 36" version="1.1" xmlns="http://www.w3.org/2000/svg" xmlns:xlink="http://www.w3.org/1999/xlink">
    <title>smiley-smile-1-alternate-1</title>
    <g id="Maquette-V2" stroke="none" stroke-width="1" fill="none" fill-rule="evenodd">
        <g id="Une-ressource" transform="translate(-1372.000000, -334.000000)" fill="#000091" fill-rule="nonzero">
            <g id="smiley-smile-1-alternate-1" transform="translate(1372.000000, 334.000000)">
                <path d="M18,0 C8.0588745,0 0,8.0588745 0,18 C0,27.9411255 8.0588745,36 18,36 C27.9411255,36 36,27.9411255 36,18 C35.9892527,8.06332957 27.9366704,0.0107472714 18,0 Z M18,33 C9.71572875,33 3,26.2842712 3,18 C3,9.71572875 9.71572875,3 18,3 C26.2842712,3 33,9.71572875 33,18 C32.9909064,26.2805016 26.2805016,32.9909064 18,33 L18,33 Z" id="Shape"></path>
                <path d="M24.738,21.195 C24.017212,20.7878746 23.1028719,21.0416342 22.695,21.762 C21.789161,23.537084 19.991661,24.681052 18,24.75 C16.008339,24.681052 14.210839,23.537084 13.305,21.762 C12.8839778,21.0704486 11.9901282,20.8378041 11.2853837,21.2363492 C10.5806392,21.6348944 10.3193449,22.5207927 10.695,23.238 C12.1252613,25.9613559 14.9244913,27.6903259 18,27.75 C21.0755087,27.6903259 23.8747387,25.9613559 25.305,23.238 C25.7121254,22.517212 25.4583658,21.6028719 24.738,21.195 Z" id="Path"></path>
                <circle id="Oval" cx="12" cy="13.5" r="3"></circle>
                <circle id="Oval" cx="24" cy="13.5" r="3"></circle>
            </g>
        </g>
    </g>
</svg>