<?xml version="1.0" encoding="UTF-8"?>
<svg width="36px" height="36px" viewBox="0 0 36 36" version="1.1" xmlns="http://www.w3.org/2000/svg" xmlns:xlink="http://www.w3.org/1999/xlink">
    <title>smiley-unhappy-1-alternate</title>
    <g id="Maquette-V2" stroke="none" stroke-width="1" fill="none" fill-rule="evenodd">
        <g id="Une-ressource" transform="translate(-1212.000000, -334.000000)" fill="#000091" fill-rule="nonzero">
            <g id="smiley-unhappy-1-alternate" transform="translate(1212.000000, 334.000000)">
                <path d="M25.8255,21.0345 C21.1120029,20.0927009 16.3047188,22.1473455 13.728,26.205 C13.2889336,26.9091631 13.5038369,27.8359336 14.208,28.275 C14.9121631,28.7140664 15.8389336,28.4991631 16.278,27.795 C18.1828587,24.817722 21.709049,23.3008958 25.1805,23.9655 C25.7040727,24.0817899 26.2499138,23.9099236 26.6124102,23.5146413 C26.9749066,23.119359 27.0989865,22.5607135 26.9379102,22.0491413 C26.7768339,21.537569 26.3550727,21.1507899 25.8315,21.0345 L25.8255,21.0345 Z" id="Path"></path>
                <path d="M18,0 C8.0588745,0 0,8.0588745 0,18 C0,27.9411255 8.0588745,36 18,36 C27.9411255,36 36,27.9411255 36,18 C35.9892527,8.06332957 27.9366704,0.0107472714 18,0 Z M18,33 C9.71572875,33 3,26.2842712 3,18 C3,9.71572875 9.71572875,3 18,3 C26.2842712,3 33,9.71572875 33,18 C32.9909064,26.2805016 26.2805016,32.9909064 18,33 L18,33 Z" id="Shape"></path>
                <circle id="Oval" cx="12" cy="13.5" r="3"></circle>
                <circle id="Oval" cx="24" cy="13.5" r="3"></circle>
            </g>
        </g>
    </g>
</svg>