<?xml version="1.0" encoding="UTF-8"?>
<svg width="36px" height="36px" viewBox="0 0 36 36" version="1.1" xmlns="http://www.w3.org/2000/svg" xmlns:xlink="http://www.w3.org/1999/xlink">
    <title>smiley-smirk-alternate</title>
    <g id="Maquette-V2" stroke="none" stroke-width="1" fill="none" fill-rule="evenodd">
        <g id="Une-ressource" transform="translate(-1319.000000, -334.000000)" fill="#000091" fill-rule="nonzero">
            <g id="smiley-smirk-alternate" transform="translate(1319.000000, 334.000000)">
                <path d="M26.8305,19.6155 C26.4633109,19.4623056 26.0503017,19.4612668 25.6823466,19.6126122 C25.3143916,19.7639577 25.0216379,20.0552873 24.8685,20.4225 C23.1124427,24.6261304 18.2850903,26.6150479 14.0775,24.8685 C13.3128618,24.5495556 12.4344444,24.9108618 12.1155,25.6755 C11.7965556,26.4401382 12.1578618,27.3185556 12.9225,27.6375 C18.6593678,30.0220712 25.243649,27.3105018 27.6375,21.5775 C27.7906944,21.2103109 27.7917332,20.7973017 27.6403878,20.4293466 C27.4890423,20.0613916 27.1977127,19.7686379 26.8305,19.6155 Z" id="Path"></path>
                <path d="M18,0 C8.0588745,0 0,8.0588745 0,18 C0,27.9411255 8.0588745,36 18,36 C27.9411255,36 36,27.9411255 36,18 C35.9892527,8.06332957 27.9366704,0.0107472714 18,0 Z M18,33 C9.71572875,33 3,26.2842712 3,18 C3,9.71572875 9.71572875,3 18,3 C26.2842712,3 33,9.71572875 33,18 C32.9909064,26.2805016 26.2805016,32.9909064 18,33 L18,33 Z" id="Shape"></path>
                <circle id="Oval" cx="12" cy="13.5" r="3"></circle>
                <circle id="Oval" cx="24" cy="13.5" r="3"></circle>
            </g>
        </g>
    </g>
</svg>